control3min_grf.mot
version=1
nRows=15
nColumns 19
inDegrees=yes
endheader
time	1_ground_force_vx	1_ground_force_vy	1_ground_force_vz	1_ground_force_px	1_ground_force_py	1_ground_force_pz	1_ground_torque_x	1_ground_torque_y	1_ground_torque_z	2_ground_force_vx	2_ground_force_vy	2_ground_force_vz	2_ground_force_px	2_ground_force_py	2_ground_force_pz	2_ground_torque_x	2_ground_torque_y	2_ground_torque_z
            3.751500	            0.274572	           -1.080361	           -0.280456	           -0.233013	            0.005581	           -0.255695	            0.068580	            0.028182	           -0.063475	            0.054449	           -2.027806	            0.649746	           -0.232311	            0.006130	           -0.833667	           -0.112292	           -0.132274	           -0.132376
            3.752000	           -0.229799	           -0.539662	           -0.276885	           -0.233013	            0.005581	           -0.255695	            0.143369	           -0.018413	           -0.047786	            0.143496	           -0.738429	            0.654305	           -0.232311	            0.006130	           -0.833667	           -0.131419	           -0.037815	           -0.132030
            3.752500	            0.091623	           -0.900917	           -0.095804	           -0.233013	            0.005581	           -0.255695	            0.098333	           -0.110782	           -0.015576	            0.049132	           -0.554619	            0.655002	           -0.232311	            0.006130	           -0.833667	           -0.168845	           -0.075829	           -0.113299
            3.753000	           -0.276019	            0.902651	           -0.316444	           -0.233013	            0.005581	           -0.255695	            0.050268	           -0.101161	           -0.162704	            0.003590	           -0.922917	            0.606780	           -0.232311	            0.006130	           -0.833667	           -0.112268	           -0.132476	           -0.075825
            3.753500	           -0.092480	           -1.260108	           -0.417886	           -0.233013	            0.005581	           -0.255695	            0.018512	           -0.111135	            0.033209	           -0.092124	           -0.370643	            0.561863	           -0.232311	            0.006130	           -0.833667	           -0.112165	           -0.160834	           -0.075926
            3.754000	            0.274653	           -0.900292	           -0.233827	           -0.233013	            0.005581	           -0.255695	            0.141616	           -0.073479	           -0.064099	            0.051893	           -1.292049	            0.887015	           -0.232311	            0.006130	           -0.833667	           -0.225082	           -0.104525	           -0.075676
            3.754500	            0.182674	           -0.539385	           -0.323765	           -0.233013	            0.005581	           -0.255695	            0.070135	            0.009733	           -0.086285	            0.050420	           -0.922581	            0.559832	           -0.232311	            0.006130	           -0.833667	           -0.149685	           -0.170557	           -0.038244
            3.755000	            0.274914	           -1.080951	           -0.142888	           -0.233013	            0.005581	           -0.255695	            0.044079	            0.046428	           -0.006942	           -0.043945	           -0.738771	            0.560529	           -0.232311	            0.006130	           -0.833667	           -0.093541	           -0.122754	           -0.132350
            3.755500	            0.274899	           -1.621552	           -0.191063	           -0.233013	            0.005581	           -0.255695	            0.140074	           -0.054911	           -0.082788	            0.004981	           -1.291716	            0.746250	           -0.232311	            0.006130	           -0.833667	           -0.168775	           -0.103918	           -0.188801
            3.756000	            0.366486	           -1.080737	           -0.188972	           -0.233013	            0.005581	           -0.255695	           -0.010475	           -0.119521	           -0.097599	           -0.278050	           -0.740788	            0.889125	           -0.232311	            0.006130	           -0.833667	           -0.149973	           -0.113168	           -0.226543
            3.756500	           -0.184331	           -0.358797	           -0.413794	           -0.233013	            0.005581	           -0.255695	            0.017695	           -0.138505	           -0.064838	            0.237175	           -0.737923	            0.607337	           -0.232311	            0.006130	           -0.833667	           -0.112497	           -0.075558	           -0.132173
            3.757000	           -0.092222	           -0.179300	           -0.229825	           -0.233013	            0.005581	           -0.255695	            0.122293	           -0.064328	           -0.098473	           -0.134157	           -1.661190	            0.932708	           -0.232311	            0.006130	           -0.833667	           -0.187484	           -0.122958	           -0.170010
            3.757500	            0.228681	           -1.440705	           -0.327744	           -0.233013	            0.005581	           -0.255695	            0.220852	           -0.008623	           -0.103549	           -0.181110	           -1.660522	            0.698088	           -0.232311	            0.006130	           -0.833667	           -0.149710	           -0.170355	           -0.094794
            3.758000	            0.366567	           -0.900668	           -0.142343	           -0.233013	            0.005581	           -0.255695	            0.062620	           -0.036476	           -0.059834	            0.146696	           -1.658166	            0.369452	           -0.232311	            0.006130	           -0.833667	           -0.131035	           -0.141862	           -0.113551
            3.758500	            0.182527	           -0.358923	           -0.368848	           -0.233013	            0.005581	           -0.255695	            0.203415	            0.065137	           -0.067586	            0.053661	           -1.842653	            0.368834	           -0.232311	            0.006130	           -0.833667	           -0.168589	           -0.142132	           -0.075835
